<?xml version="1.0" encoding="UTF-8"?><svg id="Layer_1" xmlns="http://www.w3.org/2000/svg" viewBox="0 0 39.07 41.87"><defs><style>.cls-1{fill:green;}</style></defs><path id="Path_191" class="cls-1" d="m33.79,34.96c-.59-.18-1.17-.39-1.74-.63-.75-.37-1.45-.86-2.2-1.26-1.7-.89-3.8-.24-4.69,1.46-.24.46-.38.97-.4,1.48-.03.79,0,1.58-.01,2.37,0,1.92-1.56,3.48-3.48,3.48,0,0,0,0-.01,0-1.17.02-2.34.02-3.51,0-1.89-.01-3.42-1.54-3.45-3.43-.02-.84.01-1.69-.01-2.53-.05-1.92-1.64-3.44-3.56-3.39-.52.01-1.03.14-1.49.38-.8.4-1.6.81-2.4,1.22-1.51.89-3.45.43-4.39-1.05-.79-1.18-1.51-2.4-2.16-3.65-.7-1.5-.16-3.29,1.27-4.14.72-.48,1.5-.89,2.24-1.34,1.64-.92,2.23-3,1.3-4.65-.31-.56-.78-1.01-1.34-1.32-.58-.35-1.18-.68-1.76-1.03C.22,15.91-.43,13.63.57,11.82c.01-.03.03-.05.04-.08.55-1,1.13-1.98,1.74-2.95.9-1.5,2.8-2.04,4.35-1.25.84.4,1.65.83,2.48,1.25,1.69.91,3.8.28,4.71-1.41.28-.51.42-1.09.42-1.67.01-.76-.01-1.53,0-2.29.03-1.86,1.52-3.36,3.38-3.41,1.22-.03,2.45-.03,3.68,0,1.86.04,3.36,1.55,3.38,3.41.02.82,0,1.63,0,2.45-.01,1.91,1.53,3.48,3.44,3.49.64,0,1.26-.17,1.81-.49.71-.4,1.41-.82,2.12-1.23,1.47-.95,3.44-.55,4.41.91.83,1.21,1.58,2.48,2.24,3.79.66,1.45.15,3.17-1.21,4.02-.64.45-1.35.82-2.02,1.22-1.79.85-2.55,2.99-1.7,4.77.35.73.93,1.32,1.66,1.68.47.28.94.55,1.41.82,1.91,1.04,2.61,3.44,1.57,5.35-.02.03-.03.06-.05.08-.55,1-1.14,1.98-1.74,2.95-.64,1-1.72,1.63-2.91,1.69m-14.24-21c-3.86,0-6.99,3.11-7,6.97,0,3.86,3.11,6.99,6.97,7,3.86,0,6.99-3.11,7-6.97,0,0,0-.01,0-.02-.03-3.84-3.13-6.94-6.97-6.98"/></svg>